<svg height="154" preserveAspectRatio="xMidYMid" viewBox="0 0 216 154" width="216" xmlns="http://www.w3.org/2000/svg"><g fill-rule="evenodd"><path d="m215.516 106.42c-.395-18.47-48.364-23.418-76.775-23.418-28.41 0-76.379 4.948-76.775 23.418h-.035v23.854c0 18.612 48.283 23.575 76.81 23.575 28.528 0 76.811-4.992 76.811-23.686v-23.743z" fill="#fbb713"/><path d="m215.516 106.42c-.395-18.47-48.364-23.418-76.775-23.418-28.41 0-76.379 4.948-76.775 23.418h-.035v23.854c0 18.612 48.283 23.575 76.81 23.575 28.528 0 76.811-4.992 76.811-23.686v-23.743z" opacity=".25"/><path d="m138.741 130.268c-28.527 0-76.81-4.974-76.81-23.629 0-18.658 48.283-23.637 76.81-23.637 28.528 0 76.811 4.979 76.811 23.637 0 18.655-48.283 23.629-76.811 23.629z" fill="#fbb713"/><path d="m186.162 63.309c-.394-18.471-48.364-23.419-76.774-23.419s-76.38 4.948-76.775 23.419h-.036v23.852c0 18.613 48.283 23.576 76.811 23.576 28.527 0 76.811-4.992 76.811-23.685v-23.743z" fill="#fbb713"/><path d="m186.162 63.309c-.394-18.471-48.364-23.419-76.774-23.419s-76.38 4.948-76.775 23.419h-.036v23.852c0 18.613 48.283 23.576 76.811 23.576 28.527 0 76.811-4.992 76.811-23.685v-23.743z" opacity=".25"/><path d="m109.388 87.156c-28.528 0-76.811-4.975-76.811-23.628 0-18.659 48.283-23.638 76.811-23.638 28.527 0 76.811 4.979 76.811 23.638 0 18.653-48.284 23.628-76.811 23.628z" fill="#fbb713"/><path d="m153.598 23.407c-.395-18.471-48.364-23.419-76.774-23.419s-76.38 4.948-76.775 23.419h-.036v23.852c0 18.614 48.283 23.577 76.811 23.577 28.527 0 76.81-4.991 76.81-23.686v-23.743z" fill="#fbb713"/><path d="m153.598 23.407c-.395-18.471-48.364-23.419-76.774-23.419s-76.38 4.948-76.775 23.419h-.036v23.852c0 18.614 48.283 23.577 76.811 23.577 28.527 0 76.81-4.991 76.81-23.686v-23.743z" opacity=".25"/><path d="m76.824 47.255c-28.528 0-76.812-4.974-76.812-23.628 0-18.66 48.284-23.639 76.812-23.639 28.527 0 76.81 4.979 76.81 23.639 0 18.654-48.283 23.628-76.81 23.628z" fill="#fbb713"/><path d="m19.197 32.599c-1.984 0-3.593-1.608-3.593-3.591 0-20.435 51.38-21.471 61.679-21.471 1.984 0 3.592 1.609 3.592 3.593 0 1.983-1.608 3.592-3.592 3.592-26.787 0-54.494 5.342-54.494 14.286 0 1.983-1.608 3.591-3.592 3.591z" fill="#ededed"/></g></svg>